<svg clip-rule="evenodd" fill-rule="evenodd" stroke-linejoin="round" stroke-miterlimit="2" viewBox="0 0 772 772" xmlns="http://www.w3.org/2000/svg" xmlns:xlink="http://www.w3.org/1999/xlink"><radialGradient id="a" cx="0" cy="0" gradientTransform="matrix(1574.88 -779.72 -779.72 -1574.88 0 772)" gradientUnits="userSpaceOnUse" r="1"><stop offset="0" stop-color="#3023ae"/><stop offset="1" stop-color="#c86dd7"/></radialGradient><path d="m0 0h1544v772h-1544z" fill="url(#a)" transform="matrix(.5 -0 0 -1 0 772)"/><g fill-rule="nonzero"><path d="m3.323 12c0 3.439 2 6.4 4.892 7.808l-4.138-11.339c-.497 1.111-.754 2.314-.754 3.531zm8.677 8.677c1.008 0 1.977-.177 2.885-.492l-.062-.116-2.669-7.307-2.6 7.561c.769.231 1.592.354 2.446.354zm1.192-12.746 3.139 9.331.869-2.893c.369-1.2.654-2.061.654-2.807 0-1.077-.385-1.816-.708-2.385-.446-.723-.854-1.331-.854-2.039 0-.8.6-1.538 1.462-1.538h.108c-1.599-1.468-3.692-2.281-5.862-2.277-1.437 0-2.852.357-4.117 1.039-1.264.682-2.34 1.668-3.129 2.869l.554.015c.907 0 2.307-.115 2.307-.115.477-.023.531.661.062.715 0 0-.469.062-1 .085l3.169 9.4 1.9-5.692-1.354-3.708c-.303-.017-.606-.043-.907-.077-.47-.031-.416-.746.053-.723 0 0 1.431.115 2.285.115.908 0 2.308-.115 2.308-.115.469-.023.531.661.061.715 0 0-.469.054-1 .085zm3.17 11.569c1.312-.763 2.402-1.858 3.159-3.174s1.156-2.808 1.156-4.326c0-1.508-.385-2.923-1.062-4.162.138 1.363-.068 2.738-.6 4.001zm-4.362 2.5c-2.652 0-5.196-1.054-7.071-2.929s-2.929-4.419-2.929-7.071 1.054-5.196 2.929-7.071 4.419-2.929 7.071-2.929 5.196 1.054 7.071 2.929 2.929 4.419 2.929 7.071-1.054 5.196-2.929 7.071-4.419 2.929-7.071 2.929z" fill="#ccc" transform="matrix(4 0 0 4 197.1605 503.004)"/><g fill="#ccc" transform="translate(124.1535 119.971)"><path d="m189.872 435.32v17.859h-6.636v-43.978h7.519c3.684 0 6.466.256 8.346.769 1.899.513 3.57 1.481 5.013 2.905 2.525 2.469 3.788 5.583 3.788 9.343 0 4.025-1.348 7.215-4.045 9.57-2.696 2.355-6.332 3.532-10.909 3.532zm0-6.153h2.478c6.096 0 9.143-2.345 9.143-7.035 0-4.538-3.142-6.807-9.428-6.807h-2.193z"/><path d="m221.374 409.201v37.74h12.932v6.238h-19.568v-43.978z"/><path d="m245.898 409.201v26.489c0 3.779.617 6.542 1.852 8.289 1.842 2.525 4.434 3.788 7.776 3.788 3.361 0 5.962-1.263 7.804-3.788 1.234-1.69 1.851-4.453 1.851-8.289v-26.489h6.637v28.312c0 4.633-1.443 8.45-4.33 11.45-3.247 3.342-7.234 5.013-11.962 5.013-4.729 0-8.707-1.671-11.935-5.013-2.886-3-4.329-6.817-4.329-11.45v-28.312z"/><path d="m304.972 430.278h18.172v1.453c0 3.304-.389 6.228-1.167 8.773-.76 2.354-2.042 4.557-3.846 6.608-4.082 4.595-9.276 6.893-15.58 6.893-6.152 0-11.422-2.222-15.808-6.665-4.386-4.463-6.58-9.817-6.58-16.065 0-6.38 2.232-11.792 6.694-16.235 4.462-4.462 9.893-6.694 16.292-6.694 3.437 0 6.646.703 9.628 2.108 2.848 1.405 5.649 3.684 8.402 6.836l-4.728 4.529c-3.608-4.804-8.004-7.206-13.188-7.206-4.652 0-8.554 1.604-11.706 4.813-3.152 3.152-4.728 7.102-4.728 11.849 0 4.899 1.756 8.934 5.269 12.106 3.285 2.943 6.845 4.414 10.681 4.414 3.266 0 6.2-1.101 8.801-3.304 2.602-2.221 4.054-4.88 4.358-7.975h-10.966z"/><path d="m331.49 409.201h6.637v43.978h-6.637z"/><path d="m348.694 453.179v-46.969l32.072 33.553v-30.562h6.636v46.655l-32.072-33.467v30.79z"/><path d="m422.807 415.752-5.384 3.19c-1.006-1.747-1.965-2.886-2.876-3.418-.95-.608-2.175-.911-3.675-.911-1.842 0-3.37.522-4.585 1.566-1.216 1.026-1.823 2.317-1.823 3.874 0 2.146 1.595 3.874 4.785 5.184l4.386 1.794c3.57 1.443 6.181 3.205 7.833 5.284s2.478 4.628 2.478 7.648c0 4.044-1.348 7.386-4.045 10.026-2.715 2.658-6.085 3.987-10.111 3.987-3.817 0-6.969-1.13-9.456-3.389-2.45-2.26-3.979-5.441-4.586-9.542l6.722-1.481c.304 2.582.835 4.367 1.595 5.355 1.367 1.898 3.361 2.848 5.981 2.848 2.07 0 3.789-.693 5.156-2.079 1.367-1.387 2.05-3.143 2.05-5.27 0-.854-.118-1.637-.356-2.35-.237-.712-.607-1.367-1.11-1.965-.504-.598-1.154-1.158-1.951-1.68-.798-.523-1.747-1.021-2.849-1.496l-4.244-1.766c-6.019-2.544-9.029-6.266-9.029-11.165 0-3.304 1.263-6.067 3.788-8.289 2.526-2.24 5.668-3.361 9.428-3.361 5.07 0 9.029 2.469 11.878 7.406z"/></g><g fill="#fff" transform="translate(-341.094 104.401)"><path d="m413.837 253.205v56.69h11.914c10.059 0 17.424-2.279 22.095-6.836 4.671-4.558 7.007-11.752 7.007-21.582 0-9.766-2.336-16.919-7.007-21.46s-12.036-6.812-22.095-6.812zm-9.863-8.105h20.264c14.127 0 24.495 2.937 31.103 8.813s9.912 15.064 9.912 27.564c0 12.565-3.32 21.793-9.961 27.685-6.64 5.892-16.992 8.838-31.054 8.838h-20.264z"/><path d="m480.976 245.1h46.094v8.3h-36.231v21.582h34.717v8.301h-34.717v26.416h37.11v8.301h-46.973z"/><path d="m598.749 250.715v10.4c-3.32-3.092-6.86-5.403-10.62-6.933s-7.755-2.295-11.987-2.295c-8.333 0-14.714 2.547-19.141 7.641-4.427 5.095-6.64 12.46-6.64 22.095 0 9.603 2.213 16.952 6.64 22.046s10.808 7.642 19.141 7.642c4.232 0 8.227-.765 11.987-2.295s7.3-3.842 10.62-6.934v10.303c-3.45 2.344-7.104 4.101-10.962 5.273-3.857 1.172-7.934 1.758-12.231 1.758-11.035 0-19.727-3.377-26.074-10.132-6.348-6.754-9.522-15.975-9.522-27.661 0-11.719 3.174-20.955 9.522-27.71 6.347-6.754 15.039-10.132 26.074-10.132 4.362 0 8.472.578 12.329 1.734 3.858 1.155 7.479 2.889 10.864 5.2z"/><path d="m613.984 245.1h9.863v30.81l32.715-30.81h12.695l-36.181 33.984 38.769 38.916h-12.988l-35.01-35.107v35.107h-9.863z"/><path d="m679.56 245.1h46.094v8.3h-36.231v21.582h34.717v8.301h-34.717v26.416h37.11v8.301h-46.973z"/><path d="m777.314 283.82c2.116.716 4.175 2.246 6.177 4.59s4.012 5.567 6.03 9.668l10.01 19.922h-10.596l-9.326-18.701c-2.409-4.883-4.745-8.122-7.007-9.717s-5.347-2.393-9.253-2.393h-10.742v30.811h-9.863v-72.9h22.265c8.333 0 14.551 1.741 18.652 5.224 4.102 3.483 6.153 8.74 6.153 15.772 0 4.59-1.066 8.398-3.198 11.425-2.133 3.028-5.233 5.127-9.302 6.299zm-24.707-30.615v25.879h12.402c4.753 0 8.342-1.099 10.767-3.296s3.637-5.428 3.637-9.692c0-4.265-1.212-7.479-3.637-9.644s-6.014-3.247-10.767-3.247z"/><path d="m805.39 245.1h18.018l12.597 52.978 12.5-52.978h18.115l12.5 52.978 12.598-52.978h17.871l-17.187 72.9h-21.68l-13.232-55.42-13.086 55.42h-21.68z"/><path d="m921.894 245.1h50.732v14.209h-31.933v13.574h30.029v14.209h-30.029v16.699h33.008v14.209h-51.807z"/><path d="m1019.4 273.322c2.97 0 5.21-.651 6.74-1.953s2.3-3.223 2.3-5.762c0-2.506-.77-4.419-2.3-5.737s-3.77-1.977-6.74-1.977h-10.4v15.429zm.64 31.885c3.77 0 6.61-.797 8.52-2.393 1.9-1.595 2.85-4.003 2.85-7.226 0-3.158-.94-5.526-2.83-7.105-1.89-1.578-4.73-2.368-8.54-2.368h-11.04v19.092zm17.48-26.221c4.04 1.172 7.16 3.337 9.37 6.494 2.22 3.158 3.32 7.032 3.32 11.622 0 7.031-2.37 12.272-7.12 15.722-4.76 3.451-11.98 5.176-21.68 5.176h-31.206v-72.9h28.226c10.12 0 17.45 1.53 21.99 4.589 4.54 3.06 6.82 7.959 6.82 14.698 0 3.548-.83 6.567-2.49 9.057-1.66 2.491-4.07 4.338-7.23 5.542z"/></g><path d="m5.329 3.272c1.234-.439 2.663-.165 3.65.822.988.988 1.262 2.418.823 3.651l10.845 10.845-2.122 2.122-10.846-10.845c-1.233.439-2.663.164-3.649-.823-.988-.987-1.262-2.417-.823-3.651l2.237 2.237c.586.586 1.535.586 2.121 0s.586-1.536 0-2.121zm10.368 1.883 3.182-1.768 1.414 1.415-1.768 3.182-1.768.353-2.121 2.121-1.414-1.414 2.121-2.121zm-7.071 7.778 2.121 2.122-4.95 4.949c-.585.586-1.535.586-2.121 0-.551-.551-.584-1.425-.097-2.014l.097-.107z" fill="#ff9414" transform="matrix(4.52543108706 0 0 4.52543108706 316.315332193 163.906349228)"/><path d="m13 18v2h6v2h-6c-1.105 0-2-.895-2-2v-2h-3c-2.209 0-4-1.791-4-4v-7c0-.552.448-1 1-1h3v-4h2v4h4v-4h2v4h3c.552 0 1 .448 1 1v7c0 2.209-1.791 4-4 4zm-5-2h8c1.105 0 2-.895 2-2v-3h-12v3c0 1.105.895 2 2 2zm10-8h-12v1h12zm-6 6.5c-.552 0-1-.448-1-1s.448-1 1-1 1 .448 1 1-.448 1-1 1z" fill="#ff9414" transform="matrix(3.88250285157 .92814186393 -.92814186393 3.88250285157 209.792145649 158.595518816)"/><path d="m4 21c-.552 0-1-.448-1-1v-16c0-.552.448-1 1-1h16c.552 0 1 .448 1 1v16c0 .552-.448 1-1 1zm4-11h-3v9h3zm11 0h-9v9h9zm0-5h-14v3h14z" fill="#ff9414" transform="matrix(4.43545354836 0 0 4.43545354836 448.227832918 164.489965739)"/></g></svg>